<svg xmlns="http://www.w3.org/2000/svg" viewBox="0 0 1000 990"><mask id="mask"><path fill="#fff" d="M1000,0H0V718.31H179.2c38.38,142.38,167.45,247.1,320.8,247.1s282.42-104.72,320.8-247.1H1000Z"/></mask><g mask="url(#mask)"><circle cx="500" cy="630.16" r="332.442" fill="#85c5e5"/><path fill="#CC734C" d="M610,758.72c90.76,0,72,114.24,72.87,241.28H610Z"/><path fill="#B56241" d="M632.74,831.87,610,870l11.38,130h31.76C653.91,819.73,632.74,831.87,632.74,831.87Z"/><path fill="#CC734C" d="M233.25,500c0-147.32,119.43-266.75,266.75-266.75S766.75,352.68,766.75,500A266.22,266.22,0,0,1,668.1,707.12q-8.21,6.68-16.94,12.69C591,758,515,758,446.39,751.89c-6.66-1-13.3-2.26-19.89-3.71-26.33-5.8-51.82-14.75-75.37-27.8Q342.4,715,334.2,708.76a199.59,199.59,0,0,1-15.8-13.38q-7.14-6.63-13.79-13.78A265.86,265.86,0,0,1,233.25,500Z"/><path fill="#B56241" d="M269.61,634.48c.7,1.2,1.39,2.4,2.11,3.58.43.72.88,1.42,1.33,2.14.66,1.07,1.32,2.14,2,3.19.48.76,1,1.5,1.46,2.24.66,1,1.32,2,2,3,.51.76,1,1.52,1.56,2.28.66,1,1.32,1.92,2,2.88.54.77,1.1,1.53,1.65,2.3s1.34,1.85,2,2.77,1.15,1.53,1.73,2.29,1.37,1.8,2.07,2.7,1.19,1.51,1.79,2.26,1.41,1.76,2.12,2.63,1.23,1.49,1.85,2.23,1.44,1.72,2.17,2.57,1.27,1.47,1.91,2.2l2.22,2.5c.65.73,1.31,1.44,2,2.16.86.94,1.73,1.87,2.6,2.79l1.21,1.28c1.29,1.34,2.59,2.68,3.91,4l.26.27c1.29,1.28,2.6,2.55,3.91,3.81l1.58,1.5c.95.89,1.9,1.78,2.86,2.66l1.16,1.06c1,.94,2.09,1.86,3.14,2.78q4.9,4.27,10,8.19,8.19,6.24,16.93,11.62c23.55,13,49,22,75.37,27.8,6.59,1.45,13.23,2.7,19.89,3.71,42.1,3.75,87,5.18,129.28-3.08C508.45,729,185.59,612.74,388.8,257.48h0c-2.72,1.25-5.4,2.54-8.06,3.88l-.59.29c-1.22.61-2.44,1.24-3.65,1.88l-1,.53c-3.76,2-7.48,4.07-11.13,6.23l-.9.53c-1.16.69-2.31,1.39-3.46,2.1l-.87.54q-5.36,3.35-10.55,6.93l-1.08.75c-1.09.76-2.16,1.52-3.23,2.29l-.66.47q-3.27,2.39-6.46,4.84l-.62.48c-1,.78-2,1.58-3,2.39l-1.17.94c-1,.81-2,1.62-3,2.45l0,0c-2.11,1.75-4.19,3.55-6.24,5.37l-1.14,1-2.69,2.45L318,305q-4.28,4-8.37,8.17l-1.38,1.41c-.79.82-1.58,1.64-2.36,2.47-.46.49-.92,1-1.37,1.48q-2.06,2.2-4.06,4.46c-.45.51-.91,1-1.36,1.54-.71.81-1.41,1.63-2.11,2.45l-1.51,1.79c-.68.81-1.36,1.62-2,2.44-.54.66-1.08,1.33-1.61,2-1.07,1.33-2.12,2.66-3.16,4-.54.7-1.08,1.4-1.61,2.11s-1.2,1.59-1.79,2.4-1.07,1.45-1.59,2.18-1.13,1.55-1.68,2.33q-1.42,2-2.8,4.05c-.5.73-1,1.48-1.49,2.22s-1.1,1.66-1.64,2.5l-1.49,2.31-1.68,2.71c-.43.69-.86,1.38-1.28,2.07-.89,1.46-1.75,2.93-2.61,4.4l-1.22,2.16c-.54.95-1.08,1.91-1.61,2.87-.4.73-.8,1.46-1.19,2.19-.64,1.19-1.27,2.39-1.9,3.59l-1.2,2.34c-.64,1.28-1.28,2.55-1.91,3.84-.33.69-.67,1.39-1,2.09-.52,1.09-1,2.19-1.53,3.29-.31.66-.61,1.32-.91,2q-1.11,2.47-2.17,5c-.22.52-.43,1.05-.65,1.57-.53,1.27-1.05,2.54-1.56,3.82-.27.67-.53,1.34-.79,2-.5,1.26-1,2.53-1.45,3.8-.21.55-.42,1.1-.62,1.65q-.94,2.63-1.85,5.26l-.56,1.7q-.66,2-1.29,4l-.6,1.91c-.47,1.54-.93,3.08-1.37,4.63-.1.33-.2.66-.29,1q-.78,2.76-1.5,5.54c-.16.59-.3,1.19-.45,1.78-.35,1.39-.69,2.78-1,4.18l-.42,1.75c-.43,1.9-.85,3.8-1.24,5.71l-.15.77q-.51,2.55-1,5.1c-.11.61-.21,1.21-.32,1.82-.26,1.49-.51,3-.74,4.5-.08.51-.17,1-.24,1.52-.3,1.95-.57,3.91-.83,5.88l-.15,1.3c-.2,1.59-.38,3.19-.55,4.79-.06.6-.13,1.2-.19,1.81-.16,1.68-.31,3.37-.45,5.06,0,.35-.06.69-.08,1q-.22,3-.39,6.05c0,.53,0,1.07-.07,1.6q-.1,2.36-.18,4.71c0,.59,0,1.18,0,1.77,0,2.05-.08,4.11-.08,6.17,0,0,0,.07,0,.1,0,2.22,0,4.42.08,6.62,0,.76.06,1.52.08,2.28.05,1.47.1,2.94.17,4.41,0,.89.11,1.77.16,2.66.08,1.33.15,2.66.25,4,.07,1,.16,1.89.24,2.83.11,1.26.21,2.52.34,3.77.09,1,.21,1.94.31,2.91.14,1.21.27,2.43.42,3.64.12,1,.26,2,.39,2.95.16,1.18.32,2.37.5,3.55.15,1,.31,2,.47,3,.18,1.16.37,2.33.57,3.49.18,1,.36,2,.55,3,.21,1.15.43,2.3.65,3.44s.41,2,.62,3c.24,1.14.48,2.27.74,3.4s.44,2,.68,2.93c.26,1.13.54,2.25.82,3.36s.49,1.95.74,2.91c.3,1.12.6,2.23.91,3.34.26,1,.53,1.92.81,2.87.32,1.11.65,2.21,1,3.31s.58,1.89.88,2.84.7,2.19,1.06,3.28.62,1.87.94,2.8c.38,1.09.76,2.18,1.15,3.27.33.91.65,1.83,1,2.74l1.24,3.27c.35.89.69,1.79,1,2.68.44,1.09.89,2.19,1.34,3.28.36.86.71,1.73,1.08,2.59.47,1.12,1,2.22,1.45,3.33.37.82.73,1.65,1.1,2.47.52,1.16,1.07,2.3,1.6,3.44l1.08,2.3c.61,1.26,1.24,2.5,1.87,3.75.32.63.62,1.27.95,1.9q2.88,5.61,6,11.07C268.88,633.26,269.25,633.87,269.61,634.48Z"/><path fill="none" stroke="#592d3d" stroke-miterlimit="10" stroke-width="12" d="M233.25,500c0-147.32,119.43-266.75,266.75-266.75S766.75,352.68,766.75,500A266.22,266.22,0,0,1,668.1,707.12q-8.21,6.68-16.94,12.69C591,758,515,758,446.39,751.89c-6.66-1-13.3-2.26-19.89-3.71-26.33-5.8-51.82-14.75-75.37-27.8Q342.4,715,334.2,708.76a199.59,199.59,0,0,1-15.8-13.38q-7.14-6.63-13.79-13.78A265.86,265.86,0,0,1,233.25,500Z"/><path fill="#CC734C" d="M386.12,758.72c-90.77,0-72,114.24-72.87,241.28h72.87Z"/><path fill="#B56241" d="M367.23,831.87,390,870l-11.39,130H346.88C346.07,819.73,367.23,831.87,367.23,831.87Z"/><path fill="#CC734C" d="M619.47,1070H380.53a13.28,13.28,0,0,1-13.27-13.28V772a13.28,13.28,0,0,1,13.27-13.28H613.76c13.09,0,19,7.66,19,19.88v278.08A13.28,13.28,0,0,1,619.47,1070Z"/><path fill="#B56241" d="M629.05,766.62a19.33,19.33,0,0,1-2.51-4,17.25,17.25,0,0,0-8.28-3.51,28.88,28.88,0,0,0-4.5-.34H380.53A13.28,13.28,0,0,0,367.26,772c29,10.42,83.29,16.24,132.74,16.24C563.06,788.24,604.38,778.89,629.05,766.62Z"/><path fill="none" stroke="#592d3d" stroke-linecap="square" stroke-miterlimit="10" stroke-width="12" d="M610,758.72c90.76,0,72,114.24,72.87,241.28H632.74"/><path fill="none" stroke="#592d3d" stroke-linecap="square" stroke-miterlimit="10" stroke-width="12" d="M386.12,758.72c-90.77,0-72,114.24-72.87,241.28h50.07"/><path fill="none" stroke="#592d3d" stroke-miterlimit="10" stroke-width="12" d="M380.53,758.82l233.23-.1"/><path fill="#B56241" d="M380.53,1070H497.15C388,1070,396.24,838.82,367.26,838.82v217.86A13.28,13.28,0,0,0,380.53,1070Z"/><path fill="#592d3d" d="M361.26,860.85c-.19-3.67-.11-7.34.05-11s.47-7.35.86-11c.2-1.84.4-3.67.65-5.51s.49-3.67.85-5.51a44.18,44.18,0,0,1,3.59-11,44.18,44.18,0,0,1,3.59,11c.36,1.84.62,3.67.85,5.51s.45,3.67.65,5.51c.38,3.67.68,7.34.85,11s.25,7.34.06,11Z"/><path fill="none" stroke="#592d3d" stroke-miterlimit="10" stroke-width="12" d="M632.74,870v8c.26,34,.26,69,0,102.75,0,2.87,0,5.72,0,8.53v67.41A13.28,13.28,0,0,1,619.47,1070H380.53a13.28,13.28,0,0,1-13.27-13.28V998.52c0-2.51,0-5.07,0-7.65-.25-34.87-.25-69.87,0-105.3V860.85"/><path fill="#592d3d" d="M626.74,870c-.19-4.17-.1-8.35.06-12.53s.47-8.35.85-12.53c.2-2.09.41-4.18.65-6.27s.49-4.17.85-6.26a55.09,55.09,0,0,1,3.59-12.53,55.09,55.09,0,0,1,3.59,12.53c.36,2.09.62,4.18.85,6.26s.45,4.18.65,6.27c.38,4.18.69,8.35.85,12.53s.25,8.36.06,12.53Z"/><path fill="none" stroke="#592d3d" stroke-miterlimit="10" stroke-width="12" d="M502.07,878.86A69.31,69.31,0,1,1,371,847.39"/><path fill="#CC734C" d="M371,847.39a69.68,69.68,0,0,1,15-19.67"/><path fill="#592d3d" d="M365.65,844.66a27,27,0,0,1,3.38-5.84,37.22,37.22,0,0,1,4.53-5c.84-.76,1.69-1.5,2.58-2.19a21.1,21.1,0,0,1,2.81-1.92,15,15,0,0,1,7-2,25,25,0,0,1-1.75,6.81c-.39,1-.83,1.88-1.29,2.77l-1.3,2.67c-.85,1.76-1.69,3.49-2.55,5.19a54.51,54.51,0,0,1-2.76,5Z"/><path fill="#CC734C" d="M489.33,838.82a69,69,0,0,1,12.74,40"/><path fill="#592d3d" d="M489.33,838.82a26.55,26.55,0,0,1,8.69,7.55,38.8,38.8,0,0,1,3.1,4.79c.93,1.67,1.77,3.39,2.55,5.15a55.12,55.12,0,0,1,3.46,11,48,48,0,0,1,.94,11.53h-12c-.19-3.25-.36-6.48-.7-9.73s-.77-6.48-1.4-9.74l-.5-2.44-.58-2.45c-.42-1.63-.87-3.26-1.29-4.93A104.17,104.17,0,0,1,489.33,838.82Z"/><path fill="#CC734C" d="M641.65,878.86a69.14,69.14,0,0,0-21.94-50.6"/><path fill="#592d3d" d="M635.65,878.86A107,107,0,0,0,634.39,866a81.92,81.92,0,0,0-3.12-12.67c-.34-1-.74-2.07-1.11-3.11s-.84-2.05-1.25-3.09-.94-2-1.38-3.05l-1.46-3c-2-4.1-4.17-8.19-6.36-12.75a35.76,35.76,0,0,1,12.22,8.61c.83.94,1.7,1.86,2.47,2.85s1.54,2,2.25,3,1.43,2.09,2.07,3.18,1.31,2.18,1.88,3.32A62.19,62.19,0,0,1,646,863.58a56.6,56.6,0,0,1,1.62,15.28Z"/><path fill="none" stroke="#592d3d" stroke-miterlimit="10" stroke-width="12" d="M503,878.86a69.31,69.31,0,1,0,138.61,0"/><path fill="#CC734C" d="M515.77,838.82a69,69,0,0,0-12.73,40"/><path fill="#592d3d" d="M515.77,838.82a104.17,104.17,0,0,1-2.27,10.75c-.42,1.67-.87,3.3-1.29,4.93l-.57,2.45-.5,2.44c-.63,3.26-1.09,6.5-1.41,9.74s-.5,6.48-.69,9.73H497a47,47,0,0,1,.94-11.53,54.48,54.48,0,0,1,3.46-11c.77-1.76,1.61-3.48,2.54-5.15a40,40,0,0,1,3.1-4.79A26.66,26.66,0,0,1,515.77,838.82Z"/><line x1="383.44" x2="383.44" y1="837.55" y2="758.72" fill="none" stroke="#592d3d" stroke-miterlimit="10" stroke-width="12"/><line x1="616.46" x2="616.46" y1="837.55" y2="758.72" fill="none" stroke="#592d3d" stroke-miterlimit="10" stroke-width="12"/><path fill="#D67070" stroke="#592d3d" stroke-miterlimit="10" stroke-width="12" d="M470.5,897.78h53.9v19.7c-17.74-6.05-35.71-5.9-53.9,0Z"/><path fill="#D67070" stroke="#592d3d" stroke-miterlimit="10" stroke-width="12" d="M638.1,878.86a69.06,69.06,0,0,0-18.63-47.28c-4.22-4.52-44.27,6.19-67.81,27.26-23.11,20.69-43.23,54.49-40.35,58.75A69.31,69.31,0,0,0,638.1,878.86Z"/><path fill="#fff" d="M598.11,848.39c-6.12,3.67-12.15,7.18-18,11a154.79,154.79,0,0,0-16.53,12.18c-5.15,4.46-10.11,9.32-15,14.26s-9.69,10-14.75,15.07a100,100,0,0,1,11.18-18.17A106.06,106.06,0,0,1,559.72,867a84.36,84.36,0,0,1,18.14-11.73A83.45,83.45,0,0,1,598.11,848.39Z"/><path fill="#D67070" stroke="#592d3d" stroke-miterlimit="10" stroke-width="12" d="M361.9,878.86a69.06,69.06,0,0,1,18.63-47.28c4.22-4.52,44.27,6.19,67.81,27.26,23.11,20.69,43.23,54.49,40.35,58.75A69.31,69.31,0,0,1,361.9,878.86Z"/><path fill="#C46565" d="M455.75,938.92a85.36,85.36,0,0,1-85.36-85.36,86.38,86.38,0,0,1,.44-8.71,69.31,69.31,0,0,0,96.31,93.29A85.67,85.67,0,0,1,455.75,938.92Z"/><path fill="none" stroke="#592d3d" stroke-miterlimit="10" stroke-width="12" d="M361.9,878.86a69.06,69.06,0,0,1,18.63-47.28c4.22-4.52,44.27,6.19,67.81,27.26,23.11,20.69,43.23,54.49,40.35,58.75A69.31,69.31,0,0,1,361.9,878.86Z"/><path fill="#fff" d="M401.89,848.39a83.45,83.45,0,0,1,20.25,6.87A84.36,84.36,0,0,1,440.28,867a106.06,106.06,0,0,1,14.65,15.71,100,100,0,0,1,11.18,18.17c-5.06-5-9.84-10.13-14.75-15.07s-9.84-9.8-15-14.26a154.79,154.79,0,0,0-16.53-12.18C414,855.57,408,852.06,401.89,848.39Z"/><path fill="#B56241" d="M680.7,905.78c.2-37.1-1.21-70.07-7.74-95.39-10.08-25.35-28.18-40.47-60.12-40.47l22.85,134.47S658.2,914.68,680.7,905.78Z"/><path fill="none" stroke="#592d3d" stroke-linecap="square" stroke-miterlimit="10" stroke-width="12" d="M689.3,895.23a20.28,20.28,0,0,1-3.69,2.42"/><path fill="#B56241" d="M329,809.32c-6.82,25.57-8,59.13-7.74,97,19.9,8.55,50.43-2.15,50.43-2.15L389,771.89C358.14,771.89,339.74,785.79,329,809.32Z"/><path fill="#D67070" d="M616.66,758.16l-38.44.1c0,53.72-75.33,111.14-75.33,111.14s-80.8-60.58-80.8-111.14l-38.66-.1a13.28,13.28,0,0,0-13.28,13.27v284.69a13.28,13.28,0,0,0,13.28,13.27H622.36a13.27,13.27,0,0,0,13.27-13.27V778C635.63,765.82,629.75,758.16,616.66,758.16Z"/><path fill="#D67070" d="M612.84,758.16c63.54,0,73.4,56,73.9,133.16-18.59,11.62-48.91,1.32-48.91,1.32Z"/><path fill="#C46565" d="M635.63,831.31,612.84,869.4l11.39,130h11.6V893.78l17.28,2.89C647.49,824.5,635.63,831.31,635.63,831.31Z"/><path fill="#D67070" d="M389,758.16c-61.78,0-75.82,53.79-76.85,127.66,19,19.85,57.95,4.58,57.95,4.58Z"/><path fill="#C46565" d="M370.12,831.31V890.4l-17.31,4.3C358.48,824.63,370.12,831.31,370.12,831.31Z"/><path fill="none" stroke="#592d3d" stroke-linecap="square" stroke-miterlimit="10" stroke-width="12" d="M612.84,758.16c67.42,0,78.45,56.28,78.9,133.78-26.2,12.42-53.91.7-53.91.7"/><path fill="none" stroke="#592d3d" stroke-linecap="square" stroke-miterlimit="10" stroke-width="12" d="M389,758.16c-66.79,0-80.08,54.69-80.75,130.71,20.59,14.79,61.85,1.53,61.85,1.53"/><path fill="#C46565" d="M383.43,1069.39H500c-109.19,0-100.91-231.14-129.89-231.14v217.87A13.28,13.28,0,0,0,383.43,1069.39Z"/><path fill="#592d3d" d="M364.15,860.29c-.19-3.67-.11-7.35.06-11s.47-7.34.85-11c.2-1.83.41-3.67.65-5.51s.49-3.67.85-5.5a44.05,44.05,0,0,1,3.59-11,44.05,44.05,0,0,1,3.59,11c.36,1.83.62,3.67.85,5.5s.45,3.68.65,5.51q.58,5.52.86,11c.16,3.67.24,7.35,0,11Z"/><path fill="none" stroke="#592d3d" stroke-miterlimit="10" stroke-width="12" d="M635.63,869.4v8c.26,34,.26,69,0,102.76,0,2.87,0,5.72,0,8.53v67.41a13.27,13.27,0,0,1-13.27,13.27H383.43a13.28,13.28,0,0,1-13.28-13.27V990.3c-.26-34.86-.26-69.86,0-105.3V860.29"/><path fill="#592d3d" d="M629.63,869.4c-.19-4.18-.1-8.36.06-12.53s.47-8.36.86-12.53c.2-2.09.4-4.18.64-6.27s.49-4.18.86-6.27a54.83,54.83,0,0,1,3.58-12.53,54.37,54.37,0,0,1,3.59,12.53c.36,2.09.63,4.18.85,6.27s.45,4.18.65,6.27c.39,4.17.69,8.35.85,12.53s.26,8.35.06,12.53Z"/><path fill="none" stroke="#592d3d" stroke-miterlimit="10" stroke-width="12" d="M383.43,758.26l233.23-.1"/><path fill="none" stroke="#592d3d" stroke-linecap="square" stroke-miterlimit="10" stroke-width="12" d="M310.72,891.94a24.84,24.84,0,0,0,3.68,2.76"/><path fill="#592d3d" d="M677.59,882.13a20.25,20.25,0,0,1-6.75,2.52,34.91,34.91,0,0,1-7.21.64,39.94,39.94,0,0,1-7.17-.78c-1.18-.22-2.34-.57-3.49-.87s-2.28-.78-3.38-1.24c1.21,0,2.39.17,3.56.27l3.52.29c1.17,0,2.33.2,3.5.21s2.33.11,3.49.12c2.32.05,4.64,0,7-.18A50.81,50.81,0,0,0,677.59,882.13Z"/><path fill="none" stroke="#592d3d" stroke-miterlimit="10" stroke-width="12" d="M578.22,758.26c0,53.72-75.33,111.14-75.33,111.14s-80.8-60.58-80.8-111.14"/><g><path stroke="#fff" stroke-width="16" d="M551.55,939.73a11.33,11.33,0,0,0-3-1.2V907.92a11.25,11.25,0,0,0,3.06-1.22,11.49,11.49,0,1,0-14.08-17.84L511,873.57a11.48,11.48,0,1,0-22.48-3.28,11.68,11.68,0,0,0,.47,3.26l-26.5,15.3a11.65,11.65,0,0,0-2.59-2.05,11.49,11.49,0,1,0-11.48,19.9,11.25,11.25,0,0,0,3.06,1.22v30.6a11.71,11.71,0,0,0-3,1.21,11.49,11.49,0,1,0,11.48,19.9,11.65,11.65,0,0,0,2.57-2L489,972.9a11.25,11.25,0,0,0-.47,3.25,11.48,11.48,0,1,0,23,0,11.68,11.68,0,0,0-.58-3.62l26.33-15.2a11.24,11.24,0,0,0,2.84,2.3,11.49,11.49,0,0,0,11.48-19.9ZM465.35,947a11.36,11.36,0,0,0-1.21-3,11.59,11.59,0,0,0-2-2.56l34.68-60.06a11.67,11.67,0,0,0,3.2.45,11.37,11.37,0,0,0,3.21-.46l34.67,60.06a11.45,11.45,0,0,0-3.23,5.6Zm69.45-53.36a11.46,11.46,0,0,0,8.26,14.28v30.65l-.44.11-34.68-60.07.3-.3Zm-43.06-15.34.33.32-34.68,60.07-.45-.12V907.89a11.45,11.45,0,0,0,8.25-14.29Zm16.75,90.14a11.5,11.5,0,0,0-16.76-.23l-26.51-15.31.12-.44h69.32c.06.25.13.51.21.75Z" transform="translate(0 30)"/><path fill="#e535ab" d="M551.55,939.73a11.33,11.33,0,0,0-3-1.2V907.92a11.25,11.25,0,0,0,3.06-1.22,11.49,11.49,0,1,0-14.08-17.84L511,873.57a11.48,11.48,0,1,0-22.48-3.28,11.68,11.68,0,0,0,.47,3.26l-26.5,15.3a11.65,11.65,0,0,0-2.59-2.05,11.49,11.49,0,1,0-11.48,19.9,11.25,11.25,0,0,0,3.06,1.22v30.6a11.71,11.71,0,0,0-3,1.21,11.49,11.49,0,1,0,11.48,19.9,11.65,11.65,0,0,0,2.57-2L489,972.9a11.25,11.25,0,0,0-.47,3.25,11.48,11.48,0,1,0,23,0,11.68,11.68,0,0,0-.58-3.62l26.33-15.2a11.24,11.24,0,0,0,2.84,2.3,11.49,11.49,0,0,0,11.48-19.9ZM465.35,947a11.36,11.36,0,0,0-1.21-3,11.59,11.59,0,0,0-2-2.56l34.68-60.06a11.67,11.67,0,0,0,3.2.45,11.37,11.37,0,0,0,3.21-.46l34.67,60.06a11.45,11.45,0,0,0-3.23,5.6Zm69.45-53.36a11.46,11.46,0,0,0,8.26,14.28v30.65l-.44.11-34.68-60.07.3-.3Zm-43.06-15.34.33.32-34.68,60.07-.45-.12V907.89a11.45,11.45,0,0,0,8.25-14.29Zm16.75,90.14a11.5,11.5,0,0,0-16.76-.23l-26.51-15.31.12-.44h69.32c.06.25.13.51.21.75Z" transform="translate(0 30)"/></g><path d="M426.88,961.63a69.32,69.32,0,0,0,65.62-47,71,71,0,0,1-118.19,6.64L374.26,936C387,951.63,405.15,961.63,426.88,961.63Z" opacity=".1"/><path d="M573.12,961.63a69.32,69.32,0,0,1-65.62-47,71,71,0,0,0,118.19,6.64l0,14.72C613,951.63,594.85,961.63,573.12,961.63Z" opacity=".1"/><path fill="#D67070" d="M407,943.81A69.33,69.33,0,0,1,380.42,831.7"/><path fill="#592d3d" d="M407,943.81a57.14,57.14,0,0,1-31.21-16l-1.62-1.6c-.53-.54-1-1.13-1.53-1.69s-1-1.15-1.48-1.73a22,22,0,0,1-1.43-1.79c-.9-1.23-1.81-2.46-2.68-3.72l-2.37-3.93a69,69,0,0,1-6.71-17.13,70.52,70.52,0,0,1-1.69-18.3,64.09,64.09,0,0,1,3.4-17.93c.26-.71.49-1.43.76-2.14l.88-2.1c.55-1.4,1.26-2.74,1.91-4.09a60.79,60.79,0,0,1,4.74-7.63c.85-1.21,1.82-2.35,2.75-3.49s1.94-2.23,3-3.23a47.65,47.65,0,0,1,6.73-5.59c-5.79,10-9.9,20.19-11.66,30.67A78.09,78.09,0,0,0,367.61,878a84.63,84.63,0,0,0,2,15.41,80.81,80.81,0,0,0,5.12,14.65,76.2,76.2,0,0,0,8.08,13.47,79,79,0,0,0,10.81,11.95A115,115,0,0,0,407,943.81Z"/><path fill="#D67070" d="M593.05,943.81A69.33,69.33,0,0,0,619.58,831.7"/><path fill="#592d3d" d="M593.05,943.81a115,115,0,0,0,13.35-10.29,79,79,0,0,0,10.81-11.95,76.2,76.2,0,0,0,8.08-13.47,80.81,80.81,0,0,0,5.12-14.65,84.63,84.63,0,0,0,2-15.41,78.09,78.09,0,0,0-1.15-15.67c-1.76-10.48-5.87-20.64-11.66-30.67a47.65,47.65,0,0,1,6.73,5.59c1.08,1,2,2.14,3,3.23s1.9,2.28,2.75,3.49a60.79,60.79,0,0,1,4.74,7.63c.65,1.35,1.36,2.69,1.91,4.09l.88,2.1c.27.71.5,1.43.76,2.14a64.09,64.09,0,0,1,3.4,17.93,70.52,70.52,0,0,1-1.69,18.3,69,69,0,0,1-6.71,17.13L633,917.26c-.87,1.26-1.78,2.49-2.68,3.72a22,22,0,0,1-1.43,1.79c-.49.58-1,1.16-1.48,1.73s-1,1.15-1.53,1.69l-1.62,1.6A57.14,57.14,0,0,1,593.05,943.81Z"/><path fill="#B56241" d="M271.4,576.82c-1-28.36,18-52.36,43.28-63.56a62.37,62.37,0,0,1,8.16-2.7,70,70,0,0,1,42.21,2.68A71.67,71.67,0,0,1,374,517.4c29.53,15.88,42.79,53.25,31.36,83.46a61.68,61.68,0,0,1-4.18,8.82,54.68,54.68,0,0,1-17.51,20.83,69.25,69.25,0,0,1-7.85,5c-27.38,13-64.38,9-86.45-11.4a69.35,69.35,0,0,1-6.11-7.47,64.89,64.89,0,0,1-5.57-9.5A55.78,55.78,0,0,1,272,585.39,75.67,75.67,0,0,1,271.4,576.82Z"/><path fill="#fff" d="M269.77,558.47c-1-28.36,18-52.36,43.28-63.56a62.23,62.23,0,0,1,8.15-2.7,70,70,0,0,1,42.22,2.68,71.54,71.54,0,0,1,8.92,4.16c29.53,15.89,42.79,53.25,31.36,83.46a59.6,59.6,0,0,1-4.18,8.82,63.85,63.85,0,0,1-4.71,7.8,64.78,64.78,0,0,1-5.68,7,63.08,63.08,0,0,1-7.12,6.07,68.37,68.37,0,0,1-7.85,5c-27.38,13-64.38,9-86.44-11.4a67.24,67.24,0,0,1-6.11-7.47,65,65,0,0,1-5.58-9.5A55.59,55.59,0,0,1,270.32,567,71.3,71.3,0,0,1,269.77,558.47Z"/><circle cx="338.51" cy="559.08" r="12.24" fill="#592d3d"/><path fill="#CC734C" stroke="#592d3d" stroke-miterlimit="10" stroke-width="8" d="M339.2,490.12a68.31,68.31,0,0,0-48.45,20.07,69.79,69.79,0,0,0-6.86,8,73.12,73.12,0,0,0-10.3,18.39H403.92a58.59,58.59,0,0,0-20.12-30,69.37,69.37,0,0,0-6.28-4.79A68.21,68.21,0,0,0,339.2,490.12Z"/><path fill="#CC734C" stroke="#592d3d" stroke-miterlimit="10" stroke-width="8" d="M274.09,581.45c5.5,13.75,15.3,25.93,27.92,33.32a68.27,68.27,0,0,0,10.15,4.7c24.63,9.09,55,5.07,74.49-11.61a69.9,69.9,0,0,0,7.29-7.61,55.62,55.62,0,0,0,4.6-6.42,77.37,77.37,0,0,0,4.94-12.38Z"/><path fill="none" stroke="#592d3d" stroke-miterlimit="10" stroke-width="12" d="M269.77,558.47c-1-28.36,18-52.36,43.28-63.56a62.23,62.23,0,0,1,8.15-2.7,70,70,0,0,1,42.22,2.68,71.54,71.54,0,0,1,8.92,4.16c29.53,15.89,42.79,53.25,31.36,83.46a59.6,59.6,0,0,1-4.18,8.82,63.85,63.85,0,0,1-4.71,7.8,64.78,64.78,0,0,1-5.68,7,63.08,63.08,0,0,1-7.12,6.07,68.37,68.37,0,0,1-7.85,5c-27.38,13-64.38,9-86.44-11.4a67.24,67.24,0,0,1-6.11-7.47,65,65,0,0,1-5.58-9.5A55.59,55.59,0,0,1,270.32,567,71.3,71.3,0,0,1,269.77,558.47Z"/><path fill="#B56241" d="M583.89,568.76c.43-15.13,6.67-30.09,15.1-41.33a72.82,72.82,0,0,1,7.12-8.53A69.73,69.73,0,0,1,696.28,510a73.27,73.27,0,0,1,6.53,5.13c27,21.45,30.12,63.14,15.32,93.23a62.31,62.31,0,0,1-4.78,6.86,72.09,72.09,0,0,1-7.58,8.13c-20.27,17.83-51.81,22.13-77.41,12.42a71.34,71.34,0,0,1-10.55-5c-17.9-10.78-30.37-31.09-33.43-52.23A62.93,62.93,0,0,1,583.89,568.76Z"/><path fill="#fff" d="M589.38,557.26c.42-14.15,6.42-28.15,14.52-38.66a70.56,70.56,0,0,1,6.86-8,68.55,68.55,0,0,1,86.77-8.37,69.81,69.81,0,0,1,6.28,4.79c26,20.07,29,59.07,14.74,87.22a56.5,56.5,0,0,1-4.6,6.42,68.91,68.91,0,0,1-7.29,7.6C687.15,625,656.8,629,632.17,619.9A68.79,68.79,0,0,1,622,615.19c-17.22-10.08-29.22-29.08-32.17-48.85A56.34,56.34,0,0,1,589.38,557.26Z"/><circle cx="659.21" cy="559.08" r="12.24" fill="#592d3d"/><path fill="#CC734C" stroke="#592d3d" stroke-miterlimit="10" stroke-width="8" d="M659.21,490.55a68.31,68.31,0,0,0-48.45,20.07,70.56,70.56,0,0,0-6.86,8A73.3,73.3,0,0,0,593.6,537H723.93A58.63,58.63,0,0,0,703.81,507a69.81,69.81,0,0,0-6.28-4.79A68.21,68.21,0,0,0,659.21,490.55Z"/><path fill="#CC734C" stroke="#592d3d" stroke-miterlimit="10" stroke-width="8" d="M594.1,581.87c5.51,13.76,15.3,25.94,27.92,33.32a68.79,68.79,0,0,0,10.15,4.71c24.63,9.09,55,5.06,74.49-11.62a68.91,68.91,0,0,0,7.29-7.6,56.5,56.5,0,0,0,4.6-6.42,76.19,76.19,0,0,0,4.94-12.39Z"/><path fill="none" stroke="#592d3d" stroke-miterlimit="10" stroke-width="12" d="M589.38,557.26c.42-14.15,6.42-28.15,14.52-38.66a70.56,70.56,0,0,1,6.86-8,68.55,68.55,0,0,1,86.77-8.37,69.81,69.81,0,0,1,6.28,4.79c26,20.07,29,59.07,14.74,87.22a56.5,56.5,0,0,1-4.6,6.42,68.91,68.91,0,0,1-7.29,7.6C687.15,625,656.8,629,632.17,619.9A68.79,68.79,0,0,1,622,615.19c-17.22-10.08-29.22-29.08-32.17-48.85A56.34,56.34,0,0,1,589.38,557.26Z"/><path fill="#592d3d" fill-rule="evenodd" d="M243.89,489.13c5.64,15.83,20.9,24.06,33.4,26.94,13.06-20.24,56.65-28.92,89.37-17.44,27.8,5-10.81-25.57-72.47-9-2.31.85-14.56,2.95-30.28-9.19-2.19-1.69,4.68,13.71,12.5,20C265.06,500.21,263.2,500.22,243.89,489.13Z"/><path fill="#592d3d" fill-rule="evenodd" d="M721.21,500.43c7.82-6.25,14.69-21.65,12.5-20-15.72,12.14-28,10-30.28,9.19-61.66-16.6-100.28,14-72.48,9,32.73-11.48,76.32-2.8,89.38,17.44,12.5-2.88,27.76-11.11,33.4-26.94C734.42,500.22,732.56,500.21,721.21,500.43Z"/><path fill="#592d3d" stroke="#592d3d" stroke-miterlimit="10" stroke-width="12" d="M538.71,665.74c-15.55,0-25.12-12.76-36.48-12.76S476.31,665.74,461,665.74s-23.73-11.11-23.73-26.51c0-16.65,16.75-46.06,62.61-46.06s65.39,27.74,65.39,45.46C565.23,655,554.27,665.74,538.71,665.74Z"/><path fill="#f28195" d="M511.14,655.25C506.58,643,491,635,473.29,636.57c-14.79,1.34-26.93,9.09-31.84,19.1,3.92,6.26,10.51,10.07,19.51,10.07,15.35,0,29.9-12.76,41.27-12.76A21.5,21.5,0,0,1,511.14,655.25Z"/><path fill="#592d3d" d="M455.06,628.66l.87-.35.73-.25c.47-.16.94-.28,1.41-.4a21.33,21.33,0,0,1,2.85-.53,24.24,24.24,0,0,1,5.84-.07,21.24,21.24,0,0,1,11.15,4.48,20.07,20.07,0,0,1,6.55,9.27,17.31,17.31,0,0,1,.2,10.44c-2.5-2.58-4.46-4.94-6.43-6.88a27.89,27.89,0,0,0-2.88-2.58,13.78,13.78,0,0,0-3-1.72,15.18,15.18,0,0,0-6.35-1.15,29.08,29.08,0,0,0-3.43.3c-.57.1-1.16.19-1.72.31l-.84.19-.39.08c-.09,0-.29.08-.22,0Z"/><path fill="#B56241" d="M289.63,652.2q6.38,8,13.32,15.47,6.76,7.26,14,14a204.78,204.78,0,0,0,16.07,13.62q8.34,6.34,17.24,11.82c24,13.28,49.91,22.39,76.71,28.3,6.7,1.47,13.46,2.74,20.24,3.77,69.83,6.22,147.18,6.22,208.41-32.65q8.88-6.12,17.25-12.91c15.56-12.65,28-26.65,40.9-44.33-83.93,0-138.94-94.73-207.41-94.73S367.92,652.2,289.63,652.2Z"/><path fill="#D67070" stroke="#592d3d" stroke-miterlimit="10" stroke-width="12" d="M291.53,666.4q6.25,7.85,13.08,15.2,6.64,7.14,13.79,13.78a199.59,199.59,0,0,0,15.8,13.38c5.46,4.16,11.12,8,16.93,11.62,23.55,13,49,22,75.37,27.8,6.59,1.45,13.23,2.7,19.89,3.71C515,758,591,758,651.16,719.81q8.73-6,16.94-12.69a268.58,268.58,0,0,0,41.39-42c-82.46,0-137.71-94.64-205-94.64S368.44,666.4,291.53,666.4Z"/><path fill="#C46565" d="M453.37,752.49l5.5.43,1.32.1c1.57.11,3.14.23,4.72.33l1.29.09,5.18.33,2,.12,5,.26,2.16.1,3.35.15,2.56.1,4.46.14,3,.08,2.41,0c1.73,0,3.46.06,5.19.08h1.91q5.58,0,11.16-.06l1.1,0c2.44,0,4.87-.11,7.3-.2h.28q6-.23,12-.62l.31,0c10.79-.73,21.53-1.92,32.13-3.68h0q4-.66,7.95-1.43c-33.29-9.82-129.24-43.29-193-117.69-29.32,19.08-59.55,35.28-91.16,35.28l.35.44,2.44,3,.75.9c.8,1,1.62,1.93,2.44,2.88l1.57,1.82.53.6c.65.74,1.31,1.49,2,2.22s1.31,1.44,2,2.16c.86.94,1.73,1.87,2.6,2.79l1.21,1.28c1.29,1.34,2.59,2.68,3.91,4l.26.27c1.29,1.28,2.6,2.55,3.91,3.81l1.58,1.5c.95.89,1.9,1.78,2.86,2.66l1.16,1.06c1,.94,2.09,1.86,3.14,2.78,1.54,1.35,3.1,2.66,4.68,3.95l.42.35q2.44,2,4.93,3.89c5.46,4.16,11.12,8,16.93,11.62a262,262,0,0,0,46.16,19.89c2.07.68,4.15,1.32,6.24,2q11.36,3.4,23,6,5.69,1.26,11.42,2.29c2.82.51,5.64,1,8.47,1.42l5.71.49Z"/><path fill="#592d3d" d="M579.81,624.61c-6.52-1.65-13-3.05-19.57-4.22s-13.09-2.18-19.63-3-13.12-1.45-19.68-1.89-13.14-.64-19.71-.65h-4.93l-4.93.13c-1.64,0-3.28.11-4.92.19s-3.29.13-4.92.26c-6.57.38-13.11,1.09-19.66,1.87a398,398,0,0,0-39.21,7.32,159.22,159.22,0,0,1,38.13-13.52c3.32-.66,6.64-1.41,10-1.88,1.68-.25,3.35-.56,5-.75l5.06-.6a192.24,192.24,0,0,1,20.36-1c6.79,0,13.59.39,20.34,1.11a193.91,193.91,0,0,1,20.08,3.25,180.43,180.43,0,0,1,19.57,5.41A118.4,118.4,0,0,1,579.81,624.61Z"/><path fill="#592d3d" d="M364.82,686.87c11.06,3.46,22.25,6.26,33.51,8.69,2.81.59,5.63,1.2,8.45,1.76s5.64,1.12,8.48,1.58c5.66,1,11.32,2,17,2.77,11.38,1.57,22.76,2.94,34.2,3.74s22.88,1.26,34.33,1.29l8.59,0,8.58-.26c2.86,0,5.72-.22,8.58-.37s5.72-.26,8.57-.53c11.43-.76,22.81-2.16,34.18-3.69a531.12,531.12,0,0,0,67.44-15A312.64,312.64,0,0,1,570.36,708c-5.73,1-11.45,2.24-17.24,3-2.89.4-5.77.88-8.67,1.19l-8.7.94c-11.63,1-23.3,1.71-35,1.61s-23.35-.61-35-1.76-23.17-2.82-34.6-5.14a342.06,342.06,0,0,1-33.87-8.46A234,234,0,0,1,364.82,686.87Z"/><path fill="#592d3d" d="M584.88,662.69c-14.62,1.67-29.24,2.5-43.86,3.13s-29.25.86-43.87.87-29.25-.27-43.87-.86-29.24-1.47-43.86-3.14c14.62-1.68,29.24-2.51,43.86-3.15s29.25-.86,43.87-.85,29.24.28,43.87.86S570.26,661,584.88,662.69Z"/><path fill="none" stroke="#592d3d" stroke-miterlimit="10" stroke-width="12" d="M291.53,666.4q6.25,7.85,13.08,15.2,6.64,7.14,13.79,13.78a199.59,199.59,0,0,0,15.8,13.38c5.46,4.16,11.12,8,16.93,11.62,23.55,13,49,22,75.37,27.8,6.59,1.45,13.23,2.7,19.89,3.71C515,758,591,758,651.16,719.81q8.73-6,16.94-12.69a268.58,268.58,0,0,0,41.39-42c-82.46,0-137.71-94.64-205-94.64S368.44,666.4,291.53,666.4Z"/><path fill="none" stroke="#592d3d" stroke-miterlimit="10" stroke-width="12" d="M673,659s48.64-10.61,84.3-88.54"/><path fill="none" stroke="#592d3d" stroke-miterlimit="10" stroke-width="12" d="M330,659.06s-53.47-13.43-87-87.61"/><path fill="#592d3d" d="M425.22,300.35a148.61,148.61,0,0,1,35.91-15A151.13,151.13,0,0,1,500,280,145.16,145.16,0,0,1,539,285.08a138.61,138.61,0,0,1,35.82,15.27,315.9,315.9,0,0,0-37.19-9.13A210.64,210.64,0,0,0,500.05,288a222,222,0,0,0-37.55,3.48A366.93,366.93,0,0,0,425.22,300.35Z"/><path fill="#592d3d" d="M425.22,328.3a148.61,148.61,0,0,1,35.91-15A151.56,151.56,0,0,1,500,308,145.15,145.15,0,0,1,539,313a138.61,138.61,0,0,1,35.82,15.27,317.89,317.89,0,0,0-37.19-9.13,210.64,210.64,0,0,0-37.54-3.23,222,222,0,0,0-37.55,3.48A369.62,369.62,0,0,0,425.22,328.3Z"/><path fill="#B56241" d="M574.78,328.43a310.55,310.55,0,0,1-37.2,5.68Q518.85,335.91,500,336c-12.55,0-25.1-.47-37.6-1.64a271,271,0,0,1-37.19-5.91c12.59-.39,25-.34,37.49-.37L500,328l37.29-.13C549.73,327.87,562.2,327.86,574.78,328.43Z"/><path fill="#B56241" d="M574.78,300.47a330.88,330.88,0,0,1-37.24,5.22q-18.72,1.63-37.53,1.71c-12.53.05-25.06-.42-37.56-1.48a288,288,0,0,1-37.23-5.45c12.57-.59,25-.7,37.47-.84L500,299.4c12.42,0,24.85-.06,37.31,0S562.22,299.7,574.78,300.47Z"/><path fill="#592d3d" d="M871.11,500c-94.26-5.93-88.36-172.82-144.1-140.14h0l.42.69c-1.08,8.7-11.09,100.12,26.09,224.1.41-1.25.81-2.51,1.21-3.77,2,5.4,17,39.1,75.81,23.16-40.58-34.22-31.47-75.27-31.47-75.27S843.62,530.09,871.11,500Z"/><path fill="none" stroke="#592d3d" stroke-miterlimit="10" stroke-width="12" d="M871.11,500c-94.26-5.93-88.36-172.82-144.1-140.14h0l.42.69c-1.08,8.7-11.09,100.12,26.09,224.1.41-1.25.81-2.51,1.21-3.77,2,5.4,17,39.1,75.81,23.16-40.58-34.22-31.47-75.27-31.47-75.27S843.62,530.09,871.11,500Z"/><path fill="#592d3d" d="M766.75,500a121.9,121.9,0,0,1,1.52,21.66,210.12,210.12,0,0,1-1.6,21.69q-.7,5.4-1.62,10.78c-.65,3.57-1.35,7.14-2.16,10.69a190.76,190.76,0,0,1-6,21l-7.59-2.54c2.11-6.73,4.13-13.49,5.92-20.32l1.32-5.13,1.22-5.16,1.17-5.17,1.07-5.2c1.41-6.94,2.5-13.94,3.53-21S765.53,507.16,766.75,500Z"/><path fill="#592d3d" d="M730.85,358.46A199.08,199.08,0,0,1,742,378.52c.83,1.72,1.62,3.46,2.42,5.2l2.3,5.25,2.15,5.32,2,5.36a210.27,210.27,0,0,1,6.64,21.88,127.56,127.56,0,0,1,3.37,22.58c-2.76-7.11-5.29-14.18-7.94-21.19s-5.32-13.95-8.36-20.76l-2.29-5.09-2.39-5-2.45-5-2.55-4.95c-3.43-6.59-7.09-13-10.87-19.43Z"/><path fill="#592d3d" d="M128.89,500c94.26-5.93,88.36-172.82,144.1-140.14h0l-.42.69c1.08,8.7,11.09,100.12-26.09,224.1-.41-1.25-.81-2.51-1.21-3.77-2,5.4-17,39.1-75.81,23.16,40.58-34.22,31.47-75.27,31.47-75.27S156.38,530.09,128.89,500Z"/><path fill="none" stroke="#592d3d" stroke-miterlimit="10" stroke-width="12" d="M128.89,500c94.26-5.93,88.36-172.82,144.1-140.14h0l-.42.69c1.08,8.7,11.09,100.12-26.09,224.1-.41-1.25-.81-2.51-1.21-3.77-2,5.4-17,39.1-75.81,23.16,40.58-34.22,31.47-75.27,31.47-75.27S156.38,530.09,128.89,500Z"/><path fill="#592d3d" d="M233.25,500c1.22,7.16,2.18,14.24,3.24,21.28s2.12,14.05,3.53,21l1.07,5.2,1.17,5.17,1.22,5.16,1.32,5.13c1.79,6.83,3.8,13.59,5.92,20.32l-7.59,2.54a190.76,190.76,0,0,1-6-21c-.81-3.55-1.51-7.12-2.16-10.69s-1.15-7.18-1.62-10.78a210.12,210.12,0,0,1-1.6-21.69A121.9,121.9,0,0,1,233.25,500Z"/><path fill="#592d3d" d="M276,362.65c-3.78,6.39-7.44,12.84-10.87,19.43L262.55,387l-2.45,5-2.39,5-2.29,5.09c-3,6.81-5.74,13.76-8.36,20.76s-5.18,14.08-7.94,21.19a127.56,127.56,0,0,1,3.37-22.58,210.27,210.27,0,0,1,6.64-21.88l2-5.36L253.3,389l2.3-5.25c.8-1.74,1.59-3.48,2.42-5.2a199.08,199.08,0,0,1,11.13-20.06Z"/><path fill="#592d3d" d="M198.29,528.85l-1.6-15.59c-.26-2.66-.59-5.32-.79-8-.07-1.36-.15-2.72-.11-4.13a28.85,28.85,0,0,1,.3-4.29,30.11,30.11,0,0,1,4.45,7.27c.57,1.27,1.06,2.57,1.51,3.88s.88,2.63,1.29,4,.76,2.67,1.1,4,.63,2.72.89,4.09.49,2.75.65,4.15a36.91,36.91,0,0,1,.31,4.34Z"/><path fill="#592d3d" d="M793.65,527.37a36.62,36.62,0,0,1,.88-6.66c.24-1.07.53-2.14.82-3.2s.66-2.11,1-3.15a39.45,39.45,0,0,1,2.68-6.07,17.68,17.68,0,0,1,4.45-5.25,33.5,33.5,0,0,1,.11,6.68c-.09,1-.18,2.09-.31,3.1L803,515.9l-.63,6.1c-.22,2-.43,4.09-.72,5.93Z"/><path fill="#592d3d" d="M600.89,460.57a318.14,318.14,0,0,1,33.51-6.65l-2.66.35c13.18-1.74,26.54-2.25,39.75-.48l-2.66-.36c3.27.46,6.54,1,9.82,1.42l-2.66-.36a221,221,0,0,1,29.48,6.11c5,1.39,11.1-1.73,12.3-7a10.19,10.19,0,0,0-7-12.3,239.21,239.21,0,0,0-34.59-6.78l2.66.36a143,143,0,0,0-33.44-1.95,235.08,235.08,0,0,0-33.09,4.55c-5.62,1.13-11.2,2.43-16.76,3.8-5.08,1.25-8.62,7.26-7,12.3a10.19,10.19,0,0,0,12.3,7Z"/><path fill="#592d3d" d="M286.14,460.6a202.56,202.56,0,0,1,29.25-6.19l-2.66.36a195.53,195.53,0,0,1,51.38.08l-2.66-.35a218.94,218.94,0,0,1,29.45,6.1c5,1.4,11.1-1.73,12.3-7a10.19,10.19,0,0,0-7-12.3A227.26,227.26,0,0,0,352,433.6a208.27,208.27,0,0,0-71.22,7.71,10.39,10.39,0,0,0-6,4.6,10.2,10.2,0,0,0-1,7.7c1.65,5.11,6.91,8.54,12.3,7Z"/><g style="transform-origin:center"><path d="M765.63,495.43s.3-2.94.8-8.24C759.75,345.82,643,233.25,500,233.25c-147.32,0-266.75,119.43-266.75,266.75,0,7.28.31,14.49.89,21.63,12.11-39.32,161.32-77.95,298.44-133.08C631.75,452.24,765.63,495.43,765.63,495.43Z" opacity=".15" transform="scale(0)"/><path fill="#633749" d="M747.94,163.66l0,0C684.65,74.76,266,93.83,204.16,155.69c-66.94,66.94,29.18,351,29.18,351,0-41.1,160.33-82.31,303.37-139.83,99.17,63.69,228.92,108.54,228.92,108.54S793.59,209.32,747.94,163.66Z" transform="scale(0)"/><path fill="#5E3244" d="M610.06,159.09c-36.6-4-184.31-1.44-322.45,25.65A481,481,0,0,0,235,197.59c-4.25,1.37-8.49,2.76-12.62,4.33s-8.24,3.18-12.18,5a112.44,112.44,0,0,0-11.34,5.93c-3.54,2.16-10.85,8.81-13.51,11.39l-7.3-15.56a69.81,69.81,0,0,1,12.33-9.59,116.58,116.58,0,0,1,13-6.93,217.66,217.66,0,0,1,26.74-10.11,460.64,460.64,0,0,1,54.55-12.9c18.3-3.27,36.69-5.71,55.1-7.7s35.8-7.94,54.26-8.88C494.59,148.61,592.19,154.62,610.06,159.09Z" transform="scale(0)"/><path fill="#5E3244" d="M188.17,320.14c3.47-1.42,6.8-2.75,10.2-4.07s6.78-2.61,10.18-3.87c6.79-2.57,13.62-5,20.45-7.36q20.52-7.09,41.26-13.47c6.91-2.14,13.82-4.25,20.78-6.22l10.42-3c3.47-1,6.94-2,10.44-2.93l20.94-5.59,21-5.25C382,261.7,484.59,232.18,513.37,230c-7,1.8-168.2,54.82-176.74,57.39L316,293.56q-20.57,6.22-41,12.91c-6.83,2.16-13.6,4.47-20.38,6.76s-13.54,4.65-20.3,7l-10.1,3.61q-5.07,1.77-10.08,3.64l-10,3.71c-3.32,1.23-6.69,2.52-9.9,3.78Z" transform="scale(0)"/><path fill="#5E3244" d="M711.7,270.48c-39.92,36.15-102.55,67-169.48,94.19l16.51,15.78h0S659.21,340.49,711.7,270.48Z" transform="scale(0)"/><path fill="#5E3244" d="M214.45,457.18a24.45,24.45,0,0,1,.66-5.43,27,27,0,0,1,1.75-4.9,36.8,36.8,0,0,1,5.26-8,72.69,72.69,0,0,1,13-11.7,206,206,0,0,1,28.63-16.72c19.57-9.69,39.67-17.6,59.8-25.27s40.4-14.82,60.64-22S424.76,349,445,341.87c40.42-14.25,79.8-31.3,119.21-47.95,9.86-4.14,93.82-54.66,102.72-60.67-8.32,6.8-67.53,50.51-99.82,67.22-39.1,18-78.43,35.84-118.64,50.95-20.13,7.5-40.29,14.87-60.43,22.25s-40.27,14.71-60.19,22.46c-10,3.88-19.86,7.85-29.66,12s-19.51,8.46-28.95,13.15A195.93,195.93,0,0,0,242.3,437a64.46,64.46,0,0,0-10.93,9.68c-3,3.49-7.94,11.25-7.92,14.53Z" transform="scale(0)"/><path fill="none" stroke="#592d3d" stroke-miterlimit="10" stroke-width="12" d="M747.94,163.66l0,0C684.65,74.76,266,93.83,204.16,155.69c-66.94,66.94,29.18,351,29.18,351,0-41.1,160.33-82.31,303.37-139.83,99.17,63.69,228.92,108.54,228.92,108.54S793.59,209.32,747.94,163.66Z" transform="scale(0)"/><path fill="#592d3d" d="M534.47,361.33c16.1-6.69,32.19-13.37,48.12-20.36l6-2.61,5.95-2.67,6-2.66,5.91-2.76,5.92-2.73c2-.91,3.92-1.88,5.88-2.81,3.91-1.89,7.83-3.75,11.69-5.74q23.34-11.6,45.56-25.15a427.09,427.09,0,0,0,43-29.7c-1.44,1.66-2.86,3.34-4.34,5s-2.9,3.33-4.49,4.84c-3.12,3.11-6.22,6.29-9.55,9.17-1.64,1.49-3.31,2.92-5,4.39s-3.41,2.8-5.12,4.21-3.45,2.76-5.2,4.11l-5.32,4A448.92,448.92,0,0,1,634.62,328c-3.84,2.18-7.74,4.23-11.63,6.29s-7.8,4.1-11.74,6.08l-5.9,3-6,2.87c-4,1.91-7.92,3.84-11.93,5.64q-24,11.06-48.52,20.65Z" transform="scale(0)"/><path fill="#592d3d" d="M769.08,431.09c-1.42-.23-2.71-.46-4-.72s-2.63-.53-3.94-.82c-2.62-.55-5.2-1.21-7.79-1.86q-7.74-2-15.34-4.43a315.52,315.52,0,0,1-29.83-11.2A306.66,306.66,0,0,1,679.61,398a208.59,208.59,0,0,1-26.43-17.56c2.42,1.09,4.82,2.19,7.19,3.35s4.7,2.34,7.12,3.39c4.77,2.18,9.47,4.49,14.28,6.55q14.25,6.56,28.91,12l7.33,2.71L725.4,411c4.94,1.65,9.9,3.22,14.89,4.67s10,2.83,15,4.13l3.77.91c1.26.32,2.52.62,3.78.89,2.5.57,5.08,1.14,7.49,1.59Z" transform="scale(0)"/><path fill="#592d3d" d="M615.36,160c-36.49-4.61-73.12-6.62-109.74-7.18s-73.25.43-109.73,3.15c-18.24,1.33-36.45,3.08-54.58,5.35s-36.18,5-54.06,8.36a484.87,484.87,0,0,0-52.83,12.84,211.12,211.12,0,0,0-25,9.44A113.77,113.77,0,0,0,197.84,198a56.05,56.05,0,0,0-9.85,7.45L179.5,197a67.76,67.76,0,0,1,12-9.28,115.9,115.9,0,0,1,12.81-6.8,226.14,226.14,0,0,1,26.49-10A457.87,457.87,0,0,1,285.08,158c36.5-6.53,73.31-10.19,110.17-12.17a1068.52,1068.52,0,0,1,110.62-.17c9.2.53,18.4,1.16,27.59,1.94s18.35,1.78,27.49,2.93A542.75,542.75,0,0,1,615.36,160Z" transform="scale(0)"/><path fill="#592d3d" d="M210.05,449.36a24.5,24.5,0,0,1,.64-5.37,26.93,26.93,0,0,1,1.71-4.87,36.36,36.36,0,0,1,5.18-8,71.43,71.43,0,0,1,12.89-11.68,202.41,202.41,0,0,1,28.39-16.69c19.41-9.65,39.35-17.52,59.32-25.14s40.08-14.74,60.17-21.86,40.21-14,60.25-21.15c40.11-14.17,80-28.92,119.07-45.49q14.67-6.18,29.14-12.83t28.69-13.79q14.22-7.17,28-15.08t27.08-16.87c-8.25,6.75-16.94,13-25.81,18.91s-18,11.55-27.24,16.89S598.9,276.71,589.4,281.6s-19.15,9.51-28.82,14c-38.79,18-78.6,33.46-118.5,48.49-20,7.46-40,14.78-59.95,22.12s-39.95,14.62-59.72,22.33c-9.87,3.85-19.7,7.81-29.41,11.95s-19.35,8.41-28.71,13.08a191.39,191.39,0,0,0-26.63,15.63,63.16,63.16,0,0,0-10.78,9.64c-3,3.47-4.85,7.2-4.83,10.48Z" transform="scale(0)"/><path fill="#592d3d" d="M184.48,311.25C198,305.7,211.57,300.86,225.22,296s27.38-9.26,41.18-13.53c27.6-8.52,55.41-16.36,83.45-23.23S406,246,434.45,240.93L445.09,239l5.33-1,5.34-.85L477.15,234c7.13-1.1,14.3-1.92,21.46-2.74s14.33-1.6,21.5-2.31q-10.54,2.44-21.09,4.73c-7,1.55-14.09,2.94-21.08,4.63-14,3.22-28.07,6.22-42,9.66q-42,9.66-83.48,21.17l-20.73,5.79L311.07,281c-13.74,4.12-27.44,8.36-41.07,12.81-6.84,2.15-13.63,4.46-20.42,6.74s-13.57,4.62-20.35,6.94c-13.48,4.75-27,9.69-40.19,14.83Z" transform="scale(0)"/></g></g></svg>